<?xml version="1.0" encoding="UTF-8"?>
<svg width="64" height="64" viewBox="0 0 64 64" fill="none" xmlns="http://www.w3.org/2000/svg">
    <path d="M48 36C48 42.6274 42.6274 48 36 48H16C9.37258 48 4 42.6274 4 36C4 29.3726 9.37258 24 16 24C16 16.268 21.268 10 29 10C36.732 10 42 16.268 42 24C42 24 48 24 48 36Z" fill="#E2E8F0"/>
    <path d="M56 28C56 34.6274 50.6274 40 44 40H24C17.3726 40 12 34.6274 12 28C12 21.3726 17.3726 16 24 16C24 8.26801 29.268 2 37 2C44.732 2 50 8.26801 50 16C50 16 56 16 56 28Z" fill="#CBD5E1"/>
</svg> 